<svg xmlns="http://www.w3.org/2000/svg" width="128" height="128" viewBox="0 0 128 128">
  <title>SINGAPORE</title>
  <g>
    <rect x="19" y="19" width="90" height="90" rx="9.91" fill="#ea4444"/>
    <path d="M99.09,109A9.914,9.914,0,0,0,109,99.09V64H19V99.09A9.914,9.914,0,0,0,28.91,109Z" fill="#fffae3"/>
    <path d="M54.706,25.962a17.264,17.264,0,1,0,0,31.076,15.632,15.632,0,0,1,0-31.076Z" fill="#fffae3"/>
    <g>
      <path d="M72.458,33.074a3.453,3.453,0,1,0-3.453,3.453A3.454,3.454,0,0,0,72.458,33.074Z" fill="#fffae3"/>
      <path d="M62.976,39.98a3.454,3.454,0,1,0-3.454,3.453A3.454,3.454,0,0,0,62.976,39.98Z" fill="#fffae3"/>
      <path d="M81.906,39.98a3.454,3.454,0,1,0-3.454,3.453A3.454,3.454,0,0,0,81.906,39.98Z" fill="#fffae3"/>
      <path d="M66.211,50.759a3.453,3.453,0,1,0-3.453,3.453A3.453,3.453,0,0,0,66.211,50.759Z" fill="#fffae3"/>
      <path d="M78.7,50.759a3.454,3.454,0,1,0-3.454,3.453A3.453,3.453,0,0,0,78.7,50.759Z" fill="#fffae3"/>
    </g>
  </g>
</svg>
