<?xml version="1.0" encoding="UTF-8" standalone="no"?>
<svg
   width="328.6561"
   zoomAndPan="magnify"
   viewBox="0 0 246.49207 29.695323"
   height="39.593765"
   preserveAspectRatio="xMidYMid"
   version="1.2"
   id="svg37"
   sodipodi:docname="Copy of Red Yellow Circle Sausage Food Logo(2).svg"
   xmlns:inkscape="http://www.inkscape.org/namespaces/inkscape"
   xmlns:sodipodi="http://sodipodi.sourceforge.net/DTD/sodipodi-0.dtd"
   xmlns="http://www.w3.org/2000/svg"
   xmlns:svg="http://www.w3.org/2000/svg">
  <sodipodi:namedview
     id="namedview37"
     pagecolor="#ffffff"
     bordercolor="#000000"
     borderopacity="0.25"
     inkscape:showpageshadow="2"
     inkscape:pageopacity="0.0"
     inkscape:pagecheckerboard="0"
     inkscape:deskcolor="#d1d1d1" />
  <defs
     id="defs1" />
  <g
     id="49b9883c6a"
     transform="translate(-58.04206,-173.66869)">
    <rect
       x="-489.40677"
       width="375"
       y="-7.9449153"
       height="375"
       style="fill:#ffffff;fill-opacity:1;stroke:none"
       id="rect1" />
    <rect
       x="-475.10593"
       width="375"
       y="12.711864"
       height="375"
       style="fill:#000000;fill-opacity:1;stroke:none"
       id="rect2" />
    <g
       style="fill:#ffffff;fill-opacity:1"
       id="g3">
      <g
         transform="translate(57.436587,202.48899)"
         id="g2">
        <path
           style="stroke:none"
           d="M 17.691406,-11.976562 V -13.25 H 26.90625 V 0.273438 H 0.605469 v -10.609376 h 1.789062 c 0.378907,0 0.6875,-0.121093 0.925781,-0.359374 0.238282,-0.238282 0.359376,-0.53125 0.359376,-0.882813 v -4.792969 c 0,-0.347656 -0.121094,-0.644531 -0.359376,-0.882812 -0.238281,-0.238282 -0.546874,-0.359375 -0.925781,-0.359375 h -1.75 V -28.222656 H 10.78125 c 2.359375,0 4.019531,0.71875 4.976562,2.160156 0.9375,1.402344 1.40625,3.328125 1.40625,5.78125 h -0.273437 v -0.277344 h 0.714844 v 0.277344 h -0.273438 v -7.941406 H 26.625 v 13.765625 h -9.210938 v -1.511719 c 0,-0.609375 -0.140624,-1.03125 -0.421874,-1.269531 -0.296876,-0.25 -0.636719,-0.375 -1.023438,-0.375 h -3.511719 v -0.273438 h 0.273438 v 2.59375 h -0.273438 v -0.273437 h 1.078125 c 0.324219,0 0.542969,-0.05859 0.664063,-0.179688 0.121093,-0.117187 0.179687,-0.351562 0.179687,-0.703125 v -0.433593 h 2.265625 v 5.816406 H 14.378906 V -11.5 c 0,-0.371094 -0.05859,-0.609375 -0.171875,-0.714844 -0.121093,-0.113281 -0.34375,-0.167968 -0.671875,-0.167968 h -1.078125 v -0.273438 h 0.273438 v 2.59375 h -0.273438 v -0.273438 H 16.25 c 0.382812,0 0.722656,-0.128906 1.015625,-0.390624 0.285156,-0.25 0.425781,-0.667969 0.425781,-1.25 z m 0.550782,0 c 0,0.746093 -0.203126,1.300781 -0.613282,1.660156 -0.398437,0.355468 -0.855468,0.53125 -1.378906,0.53125 h -4.066406 v -3.144532 h 1.351562 c 0.46875,0 0.820313,0.101563 1.042969,0.3125 0.234375,0.210938 0.347656,0.585938 0.347656,1.117188 v 0.160156 h -0.273437 v -0.273437 h 1.71875 v 0.273437 H 16.09375 v -5.269531 h 0.277344 v 0.273437 h -1.71875 v -0.273437 h 0.273437 v 0.160156 c 0,0.5 -0.113281,0.867188 -0.339843,1.09375 -0.226563,0.226563 -0.574219,0.339844 -1.050782,0.339844 h -1.351562 v -3.144531 h 3.785156 c 0.519531,0 0.980469,0.167968 1.375,0.503906 0.414062,0.347656 0.617188,0.910156 0.617188,1.6875 v 1.234375 H 17.6875 v -0.273437 h 8.664062 v 0.273437 h -0.273437 v -13.214844 h 0.273437 v 0.277344 h -8.746093 v -0.277344 h 0.277343 v 7.941407 h -1.269531 v -0.273438 c 0,-2.339844 -0.4375,-4.167969 -1.308593,-5.476562 -0.851563,-1.277344 -2.359376,-1.914063 -4.523438,-1.914063 H 0.917969 v -0.277344 h 0.273437 v 10.0625 H 0.917969 v -0.273437 h 1.476562 c 0.53125,0 0.964844,0.171875 1.3125,0.519531 0.347657,0.34375 0.519531,0.769531 0.519531,1.269531 v 4.792969 c 0,0.5 -0.171874,0.925781 -0.519531,1.273437 -0.347656,0.34375 -0.78125,0.519532 -1.3125,0.519532 H 0.878906 V -10.0625 H 1.152344 V 0 H 0.878906 v -0.273438 h 25.75 V 0 h -0.273437 v -12.976562 h 0.273437 v 0.273437 h -8.664062 v -0.273437 h 0.277344 z m 0,0"
           id="path2" />
      </g>
    </g>
    <g
       style="fill:#ffffff;fill-opacity:1"
       id="g5">
      <g
         transform="translate(89.576929,202.48899)"
         id="g4">
        <path
           style="stroke:none"
           d="m 13.855469,-10.335938 h 1.070312 V 0.273438 H 0.605469 v -10.609376 h 2.46875 c 0.304687,0 0.570312,-0.09766 0.800781,-0.292968 0.242188,-0.210938 0.421875,-0.464844 0.539062,-0.769532 l 1.921876,-4.835937 v -0.0039 c 0.191406,-0.449219 0.183593,-0.78125 -0.027344,-1 -0.238282,-0.25 -0.585938,-0.375 -1.039063,-0.375 H 3.320312 V -28.22265 h 17.921876 c 0.910156,0 1.492187,0.453125 1.742187,1.359375 l 4.589844,15.484375 c 0.08594,0.292968 0.261719,0.539062 0.523437,0.742187 0.257813,0.199219 0.527344,0.300781 0.808594,0.300781 h 1.871094 V 0.273438 H 16.136719 v -10.609376 h 1.070312 c 0.390625,0 0.667969,-0.09766 0.824219,-0.296874 0.148438,-0.1875 0.175781,-0.417969 0.07813,-0.695313 l -0.320313,-0.875 0.257813,-0.09375 v 0.273437 h -5.03125 v -0.273437 l 0.257813,0.09375 -0.320313,0.878906 c -0.09766,0.273438 -0.07031,0.503907 0.07813,0.691407 0.15625,0.199218 0.433594,0.296874 0.824219,0.296874 z m 0,0.550782 c -0.566407,0 -0.984375,-0.167969 -1.253907,-0.503906 -0.277343,-0.347657 -0.332031,-0.753907 -0.164062,-1.222657 l 0.386719,-1.058593 h 5.414062 l 0.386719,1.058593 c 0.167969,0.46875 0.113281,0.875 -0.164062,1.222657 -0.269532,0.335937 -0.6875,0.503906 -1.253907,0.503906 H 16.410156 V -10.0625 h 0.273438 V 0 h -0.273438 v -0.273438 h 14.09375 V 0 h -0.273437 v -10.0625 h 0.273437 v 0.277344 H 28.90625 c -0.410156,0 -0.792969,-0.140625 -1.148438,-0.417969 -0.351562,-0.277344 -0.585937,-0.613281 -0.710937,-1.019531 L 22.453125,-26.71875 C 22.277344,-27.355469 21.875,-27.671875 21.242188,-27.671875 H 3.59375 v -0.277344 h 0.273438 v 10.0625 H 3.59375 v -0.273437 h 1.675781 c 0.609375,0 1.089844,0.179687 1.4375,0.542968 0.375,0.394532 0.421875,0.925782 0.132813,1.59375 l -0.253906,-0.105468 0.257812,0.101562 -1.917969,4.828125 c -0.148437,0.386719 -0.378906,0.71875 -0.695312,0.988281 -0.332031,0.28125 -0.714844,0.425782 -1.15625,0.425782 H 0.878906 V -10.0625 H 1.152344 V 0 H 0.878906 V -0.273438 H 14.652344 V 0 h -0.273438 v -10.0625 h 0.273438 v 0.277344 z m 0.695312,-6.203125 -0.71875,1.835937 -0.257812,-0.101562 v -0.273438 h 3.472656 v 0.273438 l -0.253906,0.101562 -0.71875,-1.835937 c -0.132813,-0.351563 -0.269531,-0.722657 -0.402344,-1.109375 C 15.53125,-17.5 15.433594,-17.898438 15.378906,-18.289062 l 0.273438,-0.03516 v 0.273438 h -0.679688 v -0.273438 l 0.269532,0.05078 c -0.164063,0.816407 -0.394532,1.582032 -0.695313,2.289063 l -0.253906,-0.105469 z m -0.511719,-0.203125 v -0.0039 c 0.289063,-0.675782 0.507813,-1.402344 0.664063,-2.183594 l 0.04297,-0.222656 h 1.144531 l 0.03125,0.238281 c 0.05078,0.355469 0.140625,0.714843 0.269531,1.085937 0.128906,0.382813 0.261719,0.746094 0.394532,1.085938 l 0.863281,2.210937 h -4.277344 z m 0,0"
           id="path3" />
      </g>
    </g>
    <g
       style="fill:#ffffff;fill-opacity:1"
       id="g7">
      <g
         transform="translate(125.66988,202.48899)"
         id="g6">
        <path
           style="stroke:none"
           d="M 13.335938,0.875 C 11.964844,0.875 10.484375,0.765625 8.886719,0.550781 7.289062,0.335938 5.757812,0.0078125 4.292969,-0.4375 2.816406,-0.882812 1.5625,-1.445312 0.527344,-2.125 l -0.125,-0.082031 v -11.972657 l 0.457031,0.398438 c 0.828125,0.726562 1.921875,1.375 3.28125,1.949219 1.367187,0.578125 2.847656,1.03125 4.4375,1.363281 1.59375,0.328125 3.140625,0.492188 4.636719,0.492188 1.195312,0 2.117187,-0.109376 2.769531,-0.324219 0.550781,-0.1875 0.828125,-0.4375 0.828125,-0.757813 0,-0.324218 -0.230469,-0.5625 -0.691406,-0.71875 -0.5625,-0.191406 -1.328125,-0.328125 -2.289063,-0.40625 -0.988281,-0.07813 -2.0625,-0.1875 -3.222656,-0.320312 C 9.4375,-12.636719 8.269531,-12.851562 7.097656,-13.148438 5.914062,-13.449219 4.816406,-13.914062 3.808594,-14.539062 2.78125,-15.175781 1.964844,-16.050781 1.355469,-17.15625 0.75,-18.261719 0.445312,-19.664062 0.445312,-21.359375 c 0,-2.453125 0.730469,-4.3125 2.191407,-5.578125 1.449219,-1.257812 3.335937,-1.882812 5.667969,-1.882812 2.441406,0 4.417968,0.695312 5.933593,2.085937 1.523438,1.398437 2.285157,3.523437 2.285157,6.371094 H 16.25 v -0.273438 h 0.71875 v 0.273438 h -0.273438 v -7.859375 h 9.332032 v 13.367187 l -8.949219,-0.08594 0.01563,-0.285156 c 0.04687,-0.824219 -0.316406,-1.488282 -1.09375,-1.992188 -0.820312,-0.527344 -1.828125,-0.792969 -3.023438,-0.792969 -0.890624,0 -1.578124,0.125 -2.074218,0.371094 -0.429688,0.214844 -0.644532,0.519531 -0.644532,0.910156 0,0.445313 0.246094,0.78125 0.738282,1.011719 0.574218,0.265625 1.335937,0.472656 2.28125,0.613281 0.96875,0.148438 2.042968,0.292969 3.226562,0.441407 1.191406,0.144531 2.378906,0.347656 3.558594,0.601562 1.195312,0.257812 2.289062,0.644531 3.28125,1.164062 1.011719,0.523438 1.832031,1.246094 2.457031,2.164063 0.628907,0.925781 0.945313,2.121094 0.945313,3.585937 0,1.808594 -0.601563,3.308594 -1.796875,4.507813 -1.179688,1.179687 -2.78125,2.058594 -4.808594,2.64453125 C 18.132812,0.582031 15.863281,0.875 13.335938,0.875 Z m 0,-0.550781 c 2.476562,0 4.691406,-0.2812502 6.652343,-0.847657 1.9375,-0.558593 3.460938,-1.394531 4.570313,-2.503906 1.09375,-1.09375 1.636718,-2.464844 1.636718,-4.121094 0,-1.351562 -0.28125,-2.445312 -0.847656,-3.277343 -0.574218,-0.839844 -1.328125,-1.503907 -2.257812,-1.988281 -0.949219,-0.492188 -1.996094,-0.863282 -3.144532,-1.113282 -1.164062,-0.25 -2.332031,-0.449218 -3.507812,-0.59375 -1.1875,-0.144531 -2.269531,-0.292968 -3.242188,-0.441406 -1,-0.148438 -1.808593,-0.371094 -2.429687,-0.660156 -0.707031,-0.328125 -1.058594,-0.832032 -1.058594,-1.507813 0,-0.617187 0.316407,-1.085937 0.949219,-1.402343 0.570312,-0.285157 1.34375,-0.429688 2.320312,-0.429688 1.304688,0 2.410157,0.296875 3.324219,0.882812 0.953125,0.617188 1.402344,1.445313 1.339844,2.484376 l -0.273437,-0.01563 0.0039,-0.273437 8.382812,0.07813 v 0.273438 H 25.476556 V -27.949218 H 25.7539 v 0.277344 h -8.78515 v -0.277344 h 0.273438 v 7.863281 h -1.265626 v -0.277343 c 0,-2.6875 -0.703124,-4.675781 -2.109374,-5.964844 -1.410157,-1.296875 -3.265626,-1.945313 -5.5625,-1.945313 -2.195313,0 -3.964844,0.585938 -5.308594,1.75 -1.335938,1.15625 -2.003906,2.878907 -2.003906,5.164063 0,1.601563 0.28125,2.914063 0.84375,3.9375 0.5625,1.023437 1.316406,1.828125 2.261718,2.417969 0.960938,0.59375 2.007813,1.035156 3.136719,1.324218 1.144531,0.289063 2.292969,0.5 3.4375,0.628907 1.15625,0.132812 2.222656,0.242187 3.203125,0.320312 1.007812,0.08203 1.816406,0.226563 2.421875,0.433594 0.710937,0.242187 1.066406,0.652344 1.066406,1.238281 0,0.582032 -0.402343,1.007813 -1.207031,1.277344 -0.707031,0.234375 -1.6875,0.355469 -2.941406,0.355469 -1.535156,0 -3.117188,-0.171875 -4.746094,-0.507813 -1.628906,-0.335937 -3.140625,-0.800781 -4.542969,-1.390625 -1.410156,-0.597656 -2.554687,-1.28125 -3.429687,-2.042969 l 0.183594,-0.207031 h 0.273437 v 11.21875 H 0.679688 l 0.148437,-0.230469 c 0.992187,0.652344 2.199219,1.191407 3.625,1.625 1.433594,0.433594 2.9375,0.757813 4.507813,0.9687505 1.570312,0.2109375 3.027343,0.3164065 4.375,0.3164065 z m 0,0"
           id="path5" />
      </g>
    </g>
    <g
       style="fill:#ffffff;fill-opacity:1"
       id="g9">
      <g
         transform="translate(157.25126,202.48899)"
         id="g8">
        <path
           style="stroke:none"
           d="m 20.800781,-10.335938 h 4.425781 V 0.273438 H 5.15625 v -10.609376 h 4.386719 c 0.351562,0 0.65625,-0.121093 0.90625,-0.363281 0.25,-0.238281 0.375,-0.53125 0.375,-0.878906 v -7.464844 h 0.273437 v 0.273438 h -0.398437 c -0.34375,0 -0.621094,0.117187 -0.835938,0.347656 -0.214843,0.242187 -0.324219,0.671875 -0.324219,1.292969 v 4.667968 H 0.523438 v -15.761718 h 29.296874 v 15.761718 h -9.015624 v -4.667968 c 0,-0.625 -0.101563,-1.054688 -0.3125,-1.296875 -0.195313,-0.230469 -0.480469,-0.34375 -0.847657,-0.34375 h -0.398437 v -0.273438 h 0.273437 v 7.464844 c 0,0.347656 0.125,0.640625 0.375,0.878906 0.25,0.242188 0.554688,0.363281 0.90625,0.363281 z m 0,0.550782 c -0.5,0 -0.929687,-0.171875 -1.285156,-0.515625 -0.363281,-0.347657 -0.546875,-0.773438 -0.546875,-1.277344 v -7.742187 h 0.675781 c 0.535157,0 0.957031,0.179687 1.265625,0.535156 0.296875,0.34375 0.445313,0.898437 0.445313,1.65625 v 4.390625 h -0.273438 v -0.273438 h 8.464844 v 0.273438 h -0.277344 v -15.210938 h 0.277344 v 0.277344 h -28.75 v -0.277344 h 0.277344 v 15.210938 H 0.796875 v -0.273438 h 8.464844 v 0.273438 H 8.988281 v -4.390625 c 0,-0.761719 0.15625,-1.316406 0.46875,-1.660156 0.324219,-0.355469 0.734375,-0.53125 1.242188,-0.53125 H 11.375 v 7.742187 c 0,0.503906 -0.183594,0.929687 -0.546875,1.277344 -0.355469,0.34375 -0.785156,0.515625 -1.285156,0.515625 H 5.429688 V -10.0625 H 5.703125 V 0 H 5.429688 V -0.273438 H 24.953125 V 0 h -0.273437 v -10.0625 h 0.273437 v 0.277344 z m 0,0"
           id="path7" />
      </g>
    </g>
    <g
       style="fill:#ffffff;fill-opacity:1"
       id="g11">
      <g
         transform="translate(192.30615,202.48899)"
         id="g10">
        <path
           style="stroke:none"
           d="M 13.335938,0.875 C 11.964844,0.875 10.484375,0.765625 8.886719,0.550781 7.289062,0.335938 5.757812,0.0078125 4.292969,-0.4375 2.816406,-0.882812 1.5625,-1.445312 0.527344,-2.125 l -0.125,-0.082031 v -11.972657 l 0.457031,0.398438 c 0.828125,0.726562 1.921875,1.375 3.28125,1.949219 1.367187,0.578125 2.847656,1.03125 4.4375,1.363281 1.59375,0.328125 3.140625,0.492188 4.636719,0.492188 1.195312,0 2.117187,-0.109376 2.769531,-0.324219 0.550781,-0.1875 0.828125,-0.4375 0.828125,-0.757813 0,-0.324218 -0.230469,-0.5625 -0.691406,-0.71875 -0.5625,-0.191406 -1.328125,-0.328125 -2.289063,-0.40625 -0.988281,-0.07813 -2.0625,-0.1875 -3.222656,-0.320312 C 9.4375,-12.636719 8.269531,-12.851562 7.097656,-13.148438 5.914062,-13.449219 4.816406,-13.914062 3.808594,-14.539062 2.78125,-15.175781 1.964844,-16.050781 1.355469,-17.15625 0.75,-18.261719 0.445312,-19.664062 0.445312,-21.359375 c 0,-2.453125 0.730469,-4.3125 2.191407,-5.578125 1.449219,-1.257812 3.335937,-1.882812 5.667969,-1.882812 2.441406,0 4.417968,0.695312 5.933593,2.085937 1.523438,1.398437 2.285157,3.523437 2.285157,6.371094 H 16.25 v -0.273438 h 0.71875 v 0.273438 h -0.273438 v -7.859375 h 9.332032 v 13.367187 l -8.949219,-0.08594 0.01563,-0.285156 c 0.04687,-0.824219 -0.316406,-1.488282 -1.09375,-1.992188 -0.820312,-0.527344 -1.828125,-0.792969 -3.023438,-0.792969 -0.890624,0 -1.578124,0.125 -2.074218,0.371094 -0.429688,0.214844 -0.644532,0.519531 -0.644532,0.910156 0,0.445313 0.246094,0.78125 0.738282,1.011719 0.574218,0.265625 1.335937,0.472656 2.28125,0.613281 0.96875,0.148438 2.042968,0.292969 3.226562,0.441407 1.191406,0.144531 2.378906,0.347656 3.558594,0.601562 1.195312,0.257812 2.289062,0.644531 3.28125,1.164062 1.011719,0.523438 1.832031,1.246094 2.457031,2.164063 0.628907,0.925781 0.945313,2.121094 0.945313,3.585937 0,1.808594 -0.601563,3.308594 -1.796875,4.507813 -1.179688,1.179687 -2.78125,2.058594 -4.808594,2.64453125 C 18.132812,0.582031 15.863281,0.875 13.335938,0.875 Z m 0,-0.550781 c 2.476562,0 4.691406,-0.2812502 6.652343,-0.847657 1.9375,-0.558593 3.460938,-1.394531 4.570313,-2.503906 1.09375,-1.09375 1.636718,-2.464844 1.636718,-4.121094 0,-1.351562 -0.28125,-2.445312 -0.847656,-3.277343 -0.574218,-0.839844 -1.328125,-1.503907 -2.257812,-1.988281 -0.949219,-0.492188 -1.996094,-0.863282 -3.144532,-1.113282 -1.164062,-0.25 -2.332031,-0.449218 -3.507812,-0.59375 -1.1875,-0.144531 -2.269531,-0.292968 -3.242188,-0.441406 -1,-0.148438 -1.808593,-0.371094 -2.429687,-0.660156 -0.707031,-0.328125 -1.058594,-0.832032 -1.058594,-1.507813 0,-0.617187 0.316407,-1.085937 0.949219,-1.402343 0.570312,-0.285157 1.34375,-0.429688 2.320312,-0.429688 1.304688,0 2.410157,0.296875 3.324219,0.882812 0.953125,0.617188 1.402344,1.445313 1.339844,2.484376 l -0.273437,-0.01563 0.0039,-0.273437 8.382812,0.07813 v 0.273438 H 25.476556 V -27.949218 H 25.7539 v 0.277344 h -8.78515 v -0.277344 h 0.273438 v 7.863281 h -1.265626 v -0.277343 c 0,-2.6875 -0.703124,-4.675781 -2.109374,-5.964844 -1.410157,-1.296875 -3.265626,-1.945313 -5.5625,-1.945313 -2.195313,0 -3.964844,0.585938 -5.308594,1.75 -1.335938,1.15625 -2.003906,2.878907 -2.003906,5.164063 0,1.601563 0.28125,2.914063 0.84375,3.9375 0.5625,1.023437 1.316406,1.828125 2.261718,2.417969 0.960938,0.59375 2.007813,1.035156 3.136719,1.324218 1.144531,0.289063 2.292969,0.5 3.4375,0.628907 1.15625,0.132812 2.222656,0.242187 3.203125,0.320312 1.007812,0.08203 1.816406,0.226563 2.421875,0.433594 0.710937,0.242187 1.066406,0.652344 1.066406,1.238281 0,0.582032 -0.402343,1.007813 -1.207031,1.277344 -0.707031,0.234375 -1.6875,0.355469 -2.941406,0.355469 -1.535156,0 -3.117188,-0.171875 -4.746094,-0.507813 -1.628906,-0.335937 -3.140625,-0.800781 -4.542969,-1.390625 -1.410156,-0.597656 -2.554687,-1.28125 -3.429687,-2.042969 l 0.183594,-0.207031 h 0.273437 v 11.21875 H 0.679688 l 0.148437,-0.230469 c 0.992187,0.652344 2.199219,1.191407 3.625,1.625 1.433594,0.433594 2.9375,0.757813 4.507813,0.9687505 1.570312,0.2109375 3.027343,0.3164065 4.375,0.3164065 z m 0,0"
           id="path9" />
      </g>
    </g>
    <g
       style="fill:#ffffff;fill-opacity:1"
       id="g13">
      <g
         transform="translate(223.88753,202.48899)"
         id="g12">
        <path
           style="stroke:none"
           d="M 13.972656,-10.414062 H 15.6875 v 10.6875 H 0.605469 v -10.6875 h 1.710937 c 0.378906,0 0.695313,-0.121094 0.949219,-0.363282 0.246094,-0.238281 0.371094,-0.535156 0.371094,-0.882812 v -4.628906 c 0,-0.347657 -0.125,-0.640626 -0.371094,-0.878907 C 3.011719,-17.410156 2.695312,-17.53125 2.316406,-17.53125 H 0.605469 V -28.222656 H 15.6875 v 10.691406 h -1.714844 c -0.351562,0 -0.652344,0.121094 -0.90625,0.363281 -0.25,0.238281 -0.375,0.53125 -0.375,0.878907 v 4.628906 c 0,0.347656 0.125,0.644531 0.375,0.882812 0.253906,0.242188 0.554688,0.363282 0.90625,0.363282 z m 0,0.546874 c -0.496094,0 -0.925781,-0.171874 -1.285156,-0.515624 -0.363281,-0.347657 -0.546875,-0.773438 -0.546875,-1.277344 v -4.628906 c 0,-0.503907 0.183594,-0.929688 0.546875,-1.277344 0.359375,-0.34375 0.789062,-0.515625 1.285156,-0.515625 h 1.4375 v 0.273437 h -0.273437 v -10.140625 h 0.273437 v 0.277344 H 0.878906 v -0.277344 h 0.273438 v 10.140625 H 0.878906 v -0.273437 h 1.4375 c 0.523438,0 0.96875,0.171875 1.328125,0.515625 0.363281,0.347656 0.542969,0.773437 0.542969,1.277344 v 4.628906 c 0,0.503906 -0.179688,0.929687 -0.542969,1.277344 -0.359375,0.34375 -0.804687,0.515624 -1.328125,0.515624 h -1.4375 v -0.273437 H 1.152344 V 0 H 0.878906 v -0.273438 h 14.53125 V 0 h -0.273437 v -10.140625 h 0.273437 v 0.273437 z m 0,0"
           id="path11" />
      </g>
    </g>
    <g
       style="fill:#ffffff;fill-opacity:1"
       id="g15">
      <g
         transform="translate(244.84874,202.48899)"
         id="g14">
        <path
           style="stroke:none"
           d="M 14.09375,0.273438 H 0.605469 v -10.609376 h 1.710937 c 0.378906,0 0.695313,-0.121093 0.949219,-0.363281 0.246094,-0.238281 0.371094,-0.53125 0.371094,-0.878906 v -4.792969 c 0,-0.347656 -0.125,-0.640625 -0.371094,-0.878906 -0.253906,-0.242188 -0.570313,-0.363281 -0.949219,-0.363281 H 0.605469 V -28.222656 H 14.09375 c 2.433594,0 4.523438,0.367187 6.273438,1.097656 1.757812,0.738281 3.199218,1.765625 4.316406,3.09375 1.117187,1.316406 1.933594,2.839844 2.449218,4.570312 0.515626,1.714844 0.769532,3.542969 0.769532,5.488282 0,1.941406 -0.253906,3.769531 -0.769532,5.488281 -0.515624,1.726563 -1.332031,3.25 -2.449218,4.570313 -1.117188,1.324218 -2.558594,2.355468 -4.316406,3.089843 -1.75,0.730469 -3.839844,1.097657 -6.273438,1.097657 z m 0,-0.546876 c 2.359375,0 4.378906,-0.351562 6.0625,-1.058593 1.675781,-0.699219 3.046875,-1.679688 4.109375,-2.9375 1.066406,-1.261719 1.847656,-2.71875 2.339844,-4.375 0.5,-1.664063 0.75,-3.441407 0.75,-5.328125 0,-1.890625 -0.25,-3.667969 -0.75,-5.332032 -0.492188,-1.65625 -1.273438,-3.113281 -2.339844,-4.375 -1.0625,-1.257812 -2.433594,-2.234374 -4.109375,-2.9375 -1.683594,-0.703124 -3.703125,-1.054687 -6.0625,-1.054687 H 0.878906 v -0.277344 h 0.273438 v 10.0625 H 0.878906 v -0.273437 h 1.4375 c 0.523438,0 0.96875,0.171875 1.328125,0.515625 0.363281,0.34375 0.542969,0.769531 0.542969,1.273437 v 4.792969 c 0,0.503906 -0.179688,0.929687 -0.542969,1.277344 -0.359375,0.34375 -0.804687,0.515625 -1.328125,0.515625 h -1.4375 V -10.0625 H 1.152344 V 0 H 0.878906 v -0.273438 z m 0.4375,-17.339843 h -2.113281 v -0.273438 h 0.273437 v 7.824219 h -0.273437 v -0.273438 h 2.113281 c 1.484375,0 2.519531,-0.351562 3.105469,-1.058593 0.59375,-0.722657 0.894531,-1.582031 0.894531,-2.578125 0,-1.027344 -0.296875,-1.890625 -0.894531,-2.597656 -0.582031,-0.695313 -1.617188,-1.042969 -3.105469,-1.042969 z m 0,-0.546875 c 1.65625,0 2.832031,0.410156 3.527344,1.234375 0.679687,0.808593 1.019531,1.792969 1.019531,2.953125 0,1.128906 -0.339844,2.105468 -1.019531,2.929687 -0.695313,0.835938 -1.867188,1.257813 -3.527344,1.257813 h -2.390625 v -8.375 z m 0,0"
           id="path13" />
      </g>
    </g>
    <g
       style="fill:#ffffff;fill-opacity:1"
       id="g17">
      <g
         transform="translate(277.62786,202.48899)"
         id="g16">
        <path
           style="stroke:none"
           d="M 17.691406,-11.976562 V -13.25 H 26.90625 V 0.273438 H 0.605469 v -10.609376 h 1.789062 c 0.378907,0 0.6875,-0.121093 0.925781,-0.359374 0.238282,-0.238282 0.359376,-0.53125 0.359376,-0.882813 v -4.792969 c 0,-0.347656 -0.121094,-0.644531 -0.359376,-0.882812 -0.238281,-0.238282 -0.546874,-0.359375 -0.925781,-0.359375 h -1.75 V -28.222656 H 10.78125 c 2.359375,0 4.019531,0.71875 4.976562,2.160156 0.9375,1.402344 1.40625,3.328125 1.40625,5.78125 h -0.273437 v -0.277344 h 0.714844 v 0.277344 h -0.273438 v -7.941406 H 26.625 v 13.765625 h -9.210938 v -1.511719 c 0,-0.609375 -0.140624,-1.03125 -0.421874,-1.269531 -0.296876,-0.25 -0.636719,-0.375 -1.023438,-0.375 h -3.511719 v -0.273438 h 0.273438 v 2.59375 h -0.273438 v -0.273437 h 1.078125 c 0.324219,0 0.542969,-0.05859 0.664063,-0.179688 0.121093,-0.117187 0.179687,-0.351562 0.179687,-0.703125 v -0.433593 h 2.265625 v 5.816406 H 14.378906 V -11.5 c 0,-0.371094 -0.05859,-0.609375 -0.171875,-0.714844 -0.121093,-0.113281 -0.34375,-0.167968 -0.671875,-0.167968 h -1.078125 v -0.273438 h 0.273438 v 2.59375 h -0.273438 v -0.273438 H 16.25 c 0.382812,0 0.722656,-0.128906 1.015625,-0.390624 0.285156,-0.25 0.425781,-0.667969 0.425781,-1.25 z m 0.550782,0 c 0,0.746093 -0.203126,1.300781 -0.613282,1.660156 -0.398437,0.355468 -0.855468,0.53125 -1.378906,0.53125 h -4.066406 v -3.144532 h 1.351562 c 0.46875,0 0.820313,0.101563 1.042969,0.3125 0.234375,0.210938 0.347656,0.585938 0.347656,1.117188 v 0.160156 h -0.273437 v -0.273437 h 1.71875 v 0.273437 H 16.09375 v -5.269531 h 0.277344 v 0.273437 h -1.71875 v -0.273437 h 0.273437 v 0.160156 c 0,0.5 -0.113281,0.867188 -0.339843,1.09375 -0.226563,0.226563 -0.574219,0.339844 -1.050782,0.339844 h -1.351562 v -3.144531 h 3.785156 c 0.519531,0 0.980469,0.167968 1.375,0.503906 0.414062,0.347656 0.617188,0.910156 0.617188,1.6875 v 1.234375 H 17.6875 v -0.273437 h 8.664062 v 0.273437 h -0.273437 v -13.214844 h 0.273437 v 0.277344 h -8.746093 v -0.277344 h 0.277343 v 7.941407 h -1.269531 v -0.273438 c 0,-2.339844 -0.4375,-4.167969 -1.308593,-5.476562 -0.851563,-1.277344 -2.359376,-1.914063 -4.523438,-1.914063 H 0.917969 v -0.277344 h 0.273437 v 10.0625 H 0.917969 v -0.273437 h 1.476562 c 0.53125,0 0.964844,0.171875 1.3125,0.519531 0.347657,0.34375 0.519531,0.769531 0.519531,1.269531 v 4.792969 c 0,0.5 -0.171874,0.925781 -0.519531,1.273437 -0.347656,0.34375 -0.78125,0.519532 -1.3125,0.519532 H 0.878906 V -10.0625 H 1.152344 V 0 H 0.878906 v -0.273438 h 25.75 V 0 h -0.273437 v -12.976562 h 0.273437 v 0.273437 h -8.664062 v -0.273437 h 0.277344 z m 0,0"
           id="path15" />
      </g>
    </g>
    <g
       style="fill:#ffffff;fill-opacity:1"
       id="g19">
      <g
         transform="translate(309.77212,202.48899)"
         id="g18">
        <path
           style="stroke:none"
           d=""
           id="path17" />
      </g>
    </g>
    <g
       style="fill:#ffffff;fill-opacity:1"
       id="g21">
      <g
         transform="translate(57.436587,202.48899)"
         id="g20">
        <path
           style="stroke:none"
           d="m 17.96875,-11.96875 v -1 H 26.625 V 0 H 0.875 v -10.0625 h 1.515625 c 0.457031,0 0.832031,-0.144531 1.125,-0.4375 0.289063,-0.289062 0.4375,-0.648438 0.4375,-1.078125 V -16.375 c 0,-0.414062 -0.148437,-0.769531 -0.4375,-1.0625 -0.292969,-0.300781 -0.667969,-0.453125 -1.125,-0.453125 H 0.921875 V -27.9375 h 9.859375 c 2.257812,0 3.84375,0.679688 4.75,2.03125 0.90625,1.355469 1.359375,3.230469 1.359375,5.625 h 0.71875 v -7.65625 h 8.734375 v 13.203125 H 17.6875 v -1.234375 c 0,-0.6875 -0.179688,-1.175781 -0.53125,-1.46875 -0.34375,-0.300781 -0.742188,-0.453125 -1.1875,-0.453125 h -3.515625 v 2.59375 h 1.078125 c 0.394531,0 0.679688,-0.08203 0.859375,-0.25 0.175781,-0.175781 0.265625,-0.476563 0.265625,-0.90625 v -0.15625 H 16.375 v 5.265625 H 14.65625 V -11.5 c 0,-0.445312 -0.08984,-0.75 -0.265625,-0.90625 -0.179687,-0.164062 -0.464844,-0.25 -0.859375,-0.25 h -1.078125 v 2.59375 H 16.25 c 0.445312,0 0.84375,-0.148438 1.1875,-0.453125 0.351562,-0.3125 0.53125,-0.796875 0.53125,-1.453125 z m 0,0"
           id="path19" />
      </g>
    </g>
    <g
       style="fill:#ffffff;fill-opacity:1"
       id="g23">
      <g
         transform="translate(89.576929,202.48899)"
         id="g22">
        <path
           style="stroke:none"
           d="M 13.859375,-10.0625 H 14.65625 V 0 H 0.875 v -10.0625 h 2.203125 c 0.375,0 0.695313,-0.117188 0.96875,-0.359375 0.28125,-0.238281 0.488281,-0.53125 0.625,-0.875 L 6.59375,-16.125 c 0.238281,-0.5625 0.207031,-0.992188 -0.09375,-1.296875 -0.292969,-0.3125 -0.703125,-0.46875 -1.234375,-0.46875 H 3.59375 V -27.9375 h 17.640625 c 0.769531,0 1.265625,0.386719 1.484375,1.15625 l 4.59375,15.484375 c 0.101562,0.34375 0.304688,0.636719 0.609375,0.875 0.3125,0.242187 0.640625,0.359375 0.984375,0.359375 H 30.5 V 0 H 16.40625 v -10.0625 h 0.796875 c 0.476563,0 0.820313,-0.128906 1.03125,-0.390625 0.21875,-0.269531 0.257813,-0.59375 0.125,-0.96875 l -0.3125,-0.875 h -5.03125 l -0.328125,0.875 c -0.125,0.375 -0.08594,0.699219 0.125,0.96875 0.21875,0.261719 0.566406,0.390625 1.046875,0.390625 z m 0.4375,-6.03125 -0.71875,1.84375 h 3.46875 l -0.71875,-1.84375 c -0.136719,-0.34375 -0.273437,-0.707031 -0.40625,-1.09375 -0.125,-0.382812 -0.214844,-0.765625 -0.265625,-1.140625 h -0.6875 c -0.15625,0.804687 -0.382812,1.546875 -0.671875,2.234375 z m 0,0"
           id="path21" />
      </g>
    </g>
    <g
       style="fill:#ffffff;fill-opacity:1"
       id="g25">
      <g
         transform="translate(125.66988,202.48899)"
         id="g24">
        <path
           style="stroke:none"
           d="m 13.328125,0.59375 c -1.355469,0 -2.824219,-0.109375 -4.40625,-0.328125 C 7.335938,0.0546875 5.820312,-0.265625 4.375,-0.703125 2.925781,-1.140625 1.691406,-1.691406 0.671875,-2.359375 v -11.21875 c 0.851563,0.75 1.972656,1.417969 3.359375,2 1.382812,0.585937 2.878906,1.042969 4.484375,1.375 1.613281,0.335937 3.179687,0.5 4.703125,0.5 1.21875,0 2.164062,-0.109375 2.84375,-0.328125 0.6875,-0.226562 1.03125,-0.570312 1.03125,-1.03125 0,-0.445312 -0.296875,-0.769531 -0.890625,-0.96875 -0.585937,-0.195312 -1.371094,-0.335938 -2.359375,-0.421875 -0.980469,-0.08203 -2.046875,-0.1875 -3.203125,-0.3125 C 9.484375,-12.898438 8.320312,-13.113281 7.15625,-13.40625 6,-13.707031 4.925781,-14.160156 3.9375,-14.765625 2.957031,-15.378906 2.175781,-16.21875 1.59375,-17.28125 c -0.585938,-1.070312 -0.875,-2.429688 -0.875,-4.078125 0,-2.363281 0.695312,-4.148437 2.09375,-5.359375 1.394531,-1.21875 3.222656,-1.828125 5.484375,-1.828125 2.375,0 4.289063,0.671875 5.75,2.015625 1.46875,1.34375 2.203125,3.402344 2.203125,6.171875 h 0.71875 V -27.9375 H 25.75 v 12.8125 l -8.390625,-0.07813 c 0.0625,-0.9375 -0.34375,-1.679687 -1.21875,-2.234375 -0.867187,-0.5625 -1.921875,-0.84375 -3.171875,-0.84375 -0.929688,0 -1.65625,0.136719 -2.1875,0.40625 -0.53125,0.261719 -0.796875,0.640625 -0.796875,1.140625 0,0.5625 0.296875,0.984375 0.890625,1.265625 0.601562,0.28125 1.390625,0.496094 2.359375,0.640625 0.96875,0.148437 2.046875,0.292969 3.234375,0.4375 1.1875,0.148437 2.363281,0.351563 3.53125,0.609375 1.164062,0.25 2.234375,0.632812 3.203125,1.140625 0.976563,0.5 1.765625,1.1875 2.359375,2.0625 0.601562,0.875 0.90625,2.023437 0.90625,3.4375 0,1.730469 -0.574219,3.167969 -1.71875,4.3125 -1.148438,1.136719 -2.710938,1.992187 -4.6875,2.5625 -1.980469,0.570313 -4.226562,0.859375 -6.734375,0.859375 z m 0,0"
           id="path23" />
      </g>
    </g>
    <g
       style="fill:#ffffff;fill-opacity:1"
       id="g27">
      <g
         transform="translate(157.25126,202.48899)"
         id="g26">
        <path
           style="stroke:none"
           d="m 20.796875,-10.0625 h 4.15625 V 0 H 5.421875 v -10.0625 h 4.125 c 0.425781,0 0.789063,-0.144531 1.09375,-0.4375 0.300781,-0.289062 0.453125,-0.648438 0.453125,-1.078125 v -7.46875 h -0.390625 c -0.429687,0 -0.777344,0.148437 -1.046875,0.4375 -0.261719,0.292969 -0.390625,0.789063 -0.390625,1.484375 v 4.390625 H 0.796875 V -27.9375 h 28.75 v 15.203125 h -8.46875 V -17.125 c 0,-0.695312 -0.132813,-1.191406 -0.390625,-1.484375 -0.25,-0.289063 -0.601562,-0.4375 -1.046875,-0.4375 H 19.25 v 7.46875 c 0,0.429687 0.148438,0.789063 0.453125,1.078125 0.300781,0.292969 0.664063,0.4375 1.09375,0.4375 z m 0,0"
           id="path25" />
      </g>
    </g>
    <g
       style="fill:#ffffff;fill-opacity:1"
       id="g29">
      <g
         transform="translate(192.30615,202.48899)"
         id="g28">
        <path
           style="stroke:none"
           d="m 13.328125,0.59375 c -1.355469,0 -2.824219,-0.109375 -4.40625,-0.328125 C 7.335938,0.0546875 5.820312,-0.265625 4.375,-0.703125 2.925781,-1.140625 1.691406,-1.691406 0.671875,-2.359375 v -11.21875 c 0.851563,0.75 1.972656,1.417969 3.359375,2 1.382812,0.585937 2.878906,1.042969 4.484375,1.375 1.613281,0.335937 3.179687,0.5 4.703125,0.5 1.21875,0 2.164062,-0.109375 2.84375,-0.328125 0.6875,-0.226562 1.03125,-0.570312 1.03125,-1.03125 0,-0.445312 -0.296875,-0.769531 -0.890625,-0.96875 -0.585937,-0.195312 -1.371094,-0.335938 -2.359375,-0.421875 -0.980469,-0.08203 -2.046875,-0.1875 -3.203125,-0.3125 C 9.484375,-12.898438 8.320312,-13.113281 7.15625,-13.40625 6,-13.707031 4.925781,-14.160156 3.9375,-14.765625 2.957031,-15.378906 2.175781,-16.21875 1.59375,-17.28125 c -0.585938,-1.070312 -0.875,-2.429688 -0.875,-4.078125 0,-2.363281 0.695312,-4.148437 2.09375,-5.359375 1.394531,-1.21875 3.222656,-1.828125 5.484375,-1.828125 2.375,0 4.289063,0.671875 5.75,2.015625 1.46875,1.34375 2.203125,3.402344 2.203125,6.171875 h 0.71875 V -27.9375 H 25.75 v 12.8125 l -8.390625,-0.07813 c 0.0625,-0.9375 -0.34375,-1.679687 -1.21875,-2.234375 -0.867187,-0.5625 -1.921875,-0.84375 -3.171875,-0.84375 -0.929688,0 -1.65625,0.136719 -2.1875,0.40625 -0.53125,0.261719 -0.796875,0.640625 -0.796875,1.140625 0,0.5625 0.296875,0.984375 0.890625,1.265625 0.601562,0.28125 1.390625,0.496094 2.359375,0.640625 0.96875,0.148437 2.046875,0.292969 3.234375,0.4375 1.1875,0.148437 2.363281,0.351563 3.53125,0.609375 1.164062,0.25 2.234375,0.632812 3.203125,1.140625 0.976563,0.5 1.765625,1.1875 2.359375,2.0625 0.601562,0.875 0.90625,2.023437 0.90625,3.4375 0,1.730469 -0.574219,3.167969 -1.71875,4.3125 -1.148438,1.136719 -2.710938,1.992187 -4.6875,2.5625 -1.980469,0.570313 -4.226562,0.859375 -6.734375,0.859375 z m 0,0"
           id="path27" />
      </g>
    </g>
    <g
       style="fill:#ffffff;fill-opacity:1"
       id="g31">
      <g
         transform="translate(223.88753,202.48899)"
         id="g30">
        <path
           style="stroke:none"
           d="m 13.96875,-10.140625 h 1.4375 V 0 H 0.875 v -10.140625 h 1.4375 c 0.457031,0 0.835938,-0.144531 1.140625,-0.4375 0.300781,-0.289063 0.453125,-0.648437 0.453125,-1.078125 v -4.625 c 0,-0.425781 -0.152344,-0.785156 -0.453125,-1.078125 C 3.148438,-17.660156 2.769531,-17.8125 2.3125,-17.8125 H 0.875 v -10.125 h 14.53125 v 10.125 h -1.4375 c -0.429688,0 -0.792969,0.152344 -1.09375,0.453125 -0.304688,0.292969 -0.453125,0.652344 -0.453125,1.078125 v 4.625 c 0,0.429688 0.148437,0.789062 0.453125,1.078125 0.300781,0.292969 0.664062,0.4375 1.09375,0.4375 z m 0,0"
           id="path29" />
      </g>
    </g>
    <g
       style="fill:#ffffff;fill-opacity:1"
       id="g33">
      <g
         transform="translate(244.84874,202.48899)"
         id="g32">
        <path
           style="stroke:none"
           d="M 14.09375,0 H 0.875 v -10.0625 h 1.4375 c 0.457031,0 0.835938,-0.144531 1.140625,-0.4375 0.300781,-0.289062 0.453125,-0.648438 0.453125,-1.078125 V -16.375 c 0,-0.414062 -0.152344,-0.769531 -0.453125,-1.0625 C 3.148438,-17.738281 2.769531,-17.890625 2.3125,-17.890625 H 0.875 V -27.9375 h 13.21875 c 2.394531,0 4.445312,0.359375 6.15625,1.078125 1.71875,0.710937 3.125,1.710937 4.21875,3 1.09375,1.292969 1.890625,2.789063 2.390625,4.484375 0.507813,1.6875 0.765625,3.492188 0.765625,5.40625 0,1.917969 -0.257812,3.71875 -0.765625,5.40625 -0.5,1.6875 -1.296875,3.179688 -2.390625,4.46875 -1.09375,1.292969 -2.5,2.296875 -4.21875,3.015625 C 18.539062,-0.359375 16.488281,0 14.09375,0 Z m 0.4375,-17.890625 h -2.109375 v 7.828125 h 2.109375 c 1.570312,0 2.675781,-0.382812 3.3125,-1.15625 0.632812,-0.769531 0.953125,-1.6875 0.953125,-2.75 0,-1.09375 -0.320313,-2.019531 -0.953125,-2.78125 -0.636719,-0.757812 -1.742188,-1.140625 -3.3125,-1.140625 z m 0,0"
           id="path31" />
      </g>
    </g>
    <g
       style="fill:#ffffff;fill-opacity:1"
       id="g35">
      <g
         transform="translate(277.62786,202.48899)"
         id="g34">
        <path
           style="stroke:none"
           d="m 17.96875,-11.96875 v -1 H 26.625 V 0 H 0.875 v -10.0625 h 1.515625 c 0.457031,0 0.832031,-0.144531 1.125,-0.4375 0.289063,-0.289062 0.4375,-0.648438 0.4375,-1.078125 V -16.375 c 0,-0.414062 -0.148437,-0.769531 -0.4375,-1.0625 -0.292969,-0.300781 -0.667969,-0.453125 -1.125,-0.453125 H 0.921875 V -27.9375 h 9.859375 c 2.257812,0 3.84375,0.679688 4.75,2.03125 0.90625,1.355469 1.359375,3.230469 1.359375,5.625 h 0.71875 v -7.65625 h 8.734375 v 13.203125 H 17.6875 v -1.234375 c 0,-0.6875 -0.179688,-1.175781 -0.53125,-1.46875 -0.34375,-0.300781 -0.742188,-0.453125 -1.1875,-0.453125 h -3.515625 v 2.59375 h 1.078125 c 0.394531,0 0.679688,-0.08203 0.859375,-0.25 0.175781,-0.175781 0.265625,-0.476563 0.265625,-0.90625 v -0.15625 H 16.375 v 5.265625 H 14.65625 V -11.5 c 0,-0.445312 -0.08984,-0.75 -0.265625,-0.90625 -0.179687,-0.164062 -0.464844,-0.25 -0.859375,-0.25 h -1.078125 v 2.59375 H 16.25 c 0.445312,0 0.84375,-0.148438 1.1875,-0.453125 0.351562,-0.3125 0.53125,-0.796875 0.53125,-1.453125 z m 0,0"
           id="path33" />
      </g>
    </g>
    <g
       style="fill:#ffffff;fill-opacity:1"
       id="g37">
      <g
         transform="translate(309.77212,202.48899)"
         id="g36">
        <path
           style="stroke:none"
           d=""
           id="path35" />
      </g>
    </g>
  </g>
</svg>
