<?xml version="1.0" encoding="UTF-8" standalone="no"?>
<svg
   width="329.05713"
   zoomAndPan="magnify"
   viewBox="0 0 246.79285 29.996085"
   height="39.994781"
   preserveAspectRatio="xMidYMid"
   version="1.2"
   id="svg37"
   sodipodi:docname="Copy of Red Yellow Circle Sausage Food Logo(3).svg"
   xmlns:inkscape="http://www.inkscape.org/namespaces/inkscape"
   xmlns:sodipodi="http://sodipodi.sourceforge.net/DTD/sodipodi-0.dtd"
   xmlns="http://www.w3.org/2000/svg"
   xmlns:svg="http://www.w3.org/2000/svg">
  <sodipodi:namedview
     id="namedview37"
     pagecolor="#ffffff"
     bordercolor="#000000"
     borderopacity="0.25"
     inkscape:showpageshadow="2"
     inkscape:pageopacity="0.0"
     inkscape:pagecheckerboard="0"
     inkscape:deskcolor="#d1d1d1" />
  <defs
     id="defs1" />
  <g
     id="94b4e130a6"
     transform="translate(-583.84309,-183.05025)">
    <g
       style="fill:#000000;fill-opacity:1"
       id="g3"
       transform="translate(525.95338,9.5338982)"
       inkscape:export-filename="g3.svg"
       inkscape:export-xdpi="96"
       inkscape:export-ydpi="96">
      <g
         transform="translate(57.436587,202.48899)"
         id="g2">
        <path
           style="stroke:none"
           d="m 17.542969,-11.976562 v -1.421876 h 9.511719 V 0.425781 H 0.453125 v -10.910156 h 1.941406 c 0.335938,0 0.609375,-0.105469 0.820313,-0.316406 0.207031,-0.210938 0.3125,-0.46875 0.3125,-0.777344 v -4.792969 c 0,-0.308594 -0.105469,-0.566406 -0.3125,-0.777344 -0.210938,-0.210937 -0.484375,-0.3125 -0.820313,-0.3125 H 0.492188 V -28.371094 H 10.78125 c 2.414062,0 4.113281,0.742188 5.101562,2.222656 0.953126,1.429688 1.429688,3.386719 1.429688,5.867188 h -0.421875 v -0.425781 h 0.714844 v 0.425781 h -0.421875 v -8.089844 h 9.59375 v 14.0625 h -9.515625 v -1.660156 c 0,-0.5625 -0.121094,-0.945312 -0.367188,-1.15625 -0.265625,-0.226562 -0.574219,-0.335938 -0.925781,-0.335938 h -3.511719 v -0.425781 h 0.425781 v 2.59375 h -0.425781 v -0.421875 h 1.078125 c 0.28125,0 0.46875,-0.04687 0.558594,-0.136718 0.08984,-0.08984 0.136719,-0.289063 0.136719,-0.597657 v -0.585937 h 2.5625 v 6.121094 h -2.5625 V -11.5 c 0,-0.328125 -0.04297,-0.53125 -0.125,-0.605469 -0.08984,-0.08594 -0.28125,-0.125 -0.570313,-0.125 h -1.078125 v -0.425781 h 0.425781 v 2.59375 h -0.425781 v -0.421875 H 16.25 c 0.34375,0 0.652344,-0.117187 0.917969,-0.355469 0.25,-0.21875 0.375,-0.601562 0.375,-1.136718 z m 0.847656,0 c 0,0.792968 -0.21875,1.382812 -0.660156,1.773437 -0.429688,0.378906 -0.921875,0.566406 -1.480469,0.566406 h -4.21875 v -3.445312 h 1.503906 c 0.507813,0 0.890625,0.117187 1.144532,0.351562 0.265624,0.246094 0.398437,0.65625 0.398437,1.230469 v 0.160156 h -0.425781 v -0.421875 h 1.71875 v 0.421875 h -0.425782 v -5.269531 h 0.425782 v 0.425781 h -1.71875 v -0.425781 h 0.425781 v 0.160156 c 0,0.542969 -0.128906,0.941407 -0.386719,1.199219 -0.253906,0.253906 -0.640625,0.382812 -1.15625,0.382812 H 12.03125 V -18.3125 h 3.9375 c 0.558594,0 1.046875,0.179688 1.472656,0.539062 0.445313,0.378907 0.671875,0.980469 0.671875,1.804688 v 1.234375 H 17.6875 v -0.421875 h 8.664062 v 0.421875 h -0.425781 v -13.214844 h 0.425781 v 0.425781 h -8.746093 v -0.425781 h 0.425781 v 8.089844 h -1.566406 v -0.421875 c 0,-2.3125 -0.429688,-4.109375 -1.285156,-5.394531 -0.824219,-1.230469 -2.289063,-1.847657 -4.398438,-1.847657 H 0.917969 v -0.425781 H 1.34375 v 10.0625 H 0.917969 V -18.3125 h 1.476562 c 0.570313,0 1.042969,0.1875 1.417969,0.566406 0.375,0.375 0.5625,0.832032 0.5625,1.375 v 4.792969 c 0,0.542969 -0.1875,1 -0.5625,1.378906 -0.375,0.375 -0.847656,0.5625 -1.417969,0.5625 H 0.878906 V -10.0625 H 1.300781 V 0 H 0.878906 v -0.425781 h 25.75 V 0 h -0.421875 v -12.976562 h 0.421875 v 0.425781 h -8.664062 v -0.425781 h 0.425781 z m 0,0"
           id="path2" />
      </g>
    </g>
    <g
       style="fill:#000000;fill-opacity:1"
       id="g5"
       transform="translate(525.95338,9.5338982)">
      <g
         transform="translate(89.576929,202.48899)"
         id="g4">
        <path
           style="stroke:none"
           d="m 13.855469,-10.484375 h 1.222656 V 0.425781 h -14.625 v -10.910156 h 2.621094 c 0.269531,0 0.503906,-0.08594 0.703125,-0.257813 C 4,-10.9375 4.167969,-11.171875 4.273438,-11.453125 l 1.921874,-4.839844 0.00391,-0.0039 c 0.164062,-0.386719 0.164062,-0.667969 0.00391,-0.835937 -0.210937,-0.21875 -0.519531,-0.328126 -0.933594,-0.328126 H 3.167969 v -10.910156 h 18.074219 c 0.480468,0 0.886718,0.125 1.207031,0.378906 0.320312,0.25 0.546875,0.613282 0.675781,1.089844 l 4.589844,15.484375 c 0.08203,0.257813 0.238281,0.476563 0.476562,0.664063 0.226563,0.179687 0.464844,0.269531 0.714844,0.269531 h 2.019531 V 0.425781 H 15.984375 v -10.910156 h 1.222656 c 0.34375,0 0.578125,-0.08203 0.707031,-0.242187 0.113282,-0.140626 0.132813,-0.324219 0.05078,-0.550782 l -0.316406,-0.875 0.398437,-0.144531 v 0.425781 h -5.03125 v -0.425781 l 0.398437,0.144531 -0.320312,0.878906 c -0.07813,0.222657 -0.0625,0.40625 0.05469,0.546876 0.128906,0.160156 0.363281,0.242187 0.707031,0.242187 z m 0,0.847656 c -0.617188,0 -1.074219,-0.1875 -1.371094,-0.558593 -0.3125,-0.390626 -0.375,-0.847657 -0.1875,-1.367188 l 0.421875,-1.160156 h 5.625 l 0.421875,1.160156 c 0.1875,0.523438 0.125,0.976562 -0.1875,1.367188 -0.296875,0.371093 -0.753906,0.558593 -1.371094,0.558593 H 16.410156 V -10.0625 h 0.421875 V 0 h -0.421875 v -0.425781 h 14.09375 V 0 h -0.425781 v -10.0625 h 0.425781 v 0.425781 H 28.90625 c -0.445312,0 -0.855469,-0.148437 -1.238281,-0.449219 -0.378907,-0.292968 -0.632813,-0.660156 -0.765625,-1.09375 l -4.59375,-15.496093 c -0.08203,-0.296875 -0.207032,-0.511719 -0.382813,-0.648438 -0.167969,-0.132812 -0.398437,-0.199219 -0.683593,-0.199219 H 3.59375 v -0.425781 h 0.421875 v 10.0625 H 3.59375 V -18.3125 h 1.675781 c 0.652344,0 1.167969,0.199219 1.546875,0.589844 0.421875,0.441406 0.472656,1.027344 0.160156,1.757812 l -0.390624,-0.164062 0.394531,0.15625 -1.914063,4.824218 c -0.15625,0.414063 -0.402344,0.765626 -0.738281,1.050782 -0.359375,0.308594 -0.777344,0.460937 -1.253906,0.460937 H 0.878906 V -10.0625 H 1.300781 V 0 H 0.878906 V -0.425781 H 14.652344 V 0 h -0.421875 v -10.0625 h 0.421875 v 0.425781 z m 0.832031,-6.300781 -0.71875,1.839844 -0.394531,-0.15625 v -0.425782 h 3.472656 v 0.425782 l -0.394531,0.15625 -0.71875,-1.839844 c -0.132813,-0.351562 -0.269532,-0.722656 -0.402344,-1.113281 -0.144531,-0.410157 -0.242188,-0.816407 -0.300781,-1.214844 l 0.421875,-0.05859 v 0.421875 h -0.679688 v -0.421875 l 0.414063,0.08203 c -0.164063,0.824219 -0.398438,1.597657 -0.703125,2.316407 l -0.390625,-0.164063 z m -0.789062,-0.308594 0.0039,-0.0039 v -0.0039 c 0.28125,-0.667969 0.5,-1.386719 0.652344,-2.15625 L 14.625,-18.75 h 1.394531 l 0.05078,0.363281 c 0.05078,0.347657 0.136719,0.699219 0.261719,1.058594 0.132813,0.382813 0.261719,0.742187 0.394531,1.082031 l 0.945313,2.417969 h -4.71875 z m 0,0"
           id="path3" />
      </g>
    </g>
    <g
       style="fill:#000000;fill-opacity:1"
       id="g7"
       transform="translate(525.95338,9.5338982)">
      <g
         transform="translate(125.66988,202.48899)"
         id="g6">
        <path
           style="stroke:none"
           d="m 13.335938,1.023438 c -1.378907,0 -2.867188,-0.109376 -4.46875,-0.324219 C 7.261719,0.484375 5.722656,0.152344 4.25,-0.292969 2.757812,-0.742188 1.492188,-1.3125 0.445312,-2 L 0.253906,-2.125 v -12.382812 l 0.703125,0.613281 c 0.820313,0.714843 1.898438,1.355469 3.242188,1.925781 1.355469,0.574219 2.828125,1.023438 4.410156,1.351562 1.582031,0.328126 3.117187,0.492188 4.605469,0.492188 1.179687,0 2.085937,-0.105469 2.722656,-0.320312 0.484375,-0.160157 0.726562,-0.367188 0.726562,-0.613282 0,-0.25 -0.195312,-0.441406 -0.589843,-0.578125 -0.554688,-0.1875 -1.304688,-0.320312 -2.253907,-0.398437 -0.988281,-0.07813 -2.066406,-0.1875 -3.226562,-0.320313 C 9.414062,-12.488281 8.238281,-12.707031 7.0625,-13.003906 5.863281,-13.308594 4.75,-13.777344 3.730469,-14.414062 2.679688,-15.0625 1.847656,-15.953125 1.226562,-17.082031 c -0.621093,-1.128907 -0.933593,-2.554688 -0.933593,-4.277344 0,-2.5 0.75,-4.394531 2.242187,-5.691406 1.480469,-1.28125 3.402344,-1.921875 5.769532,-1.921875 2.480468,0 4.492187,0.710937 6.035156,2.128906 1.554687,1.429688 2.335937,3.589844 2.335937,6.480469 H 16.25 v -0.421875 h 0.71875 v 0.421875 h -0.425781 v -8.007813 h 9.632812 v 13.667969 l -9.257812,-0.08984 0.02734,-0.441406 c 0.04297,-0.769531 -0.296874,-1.386719 -1.027343,-1.855469 -0.792969,-0.515625 -1.773438,-0.773437 -2.941407,-0.773437 -0.867187,0 -1.535156,0.121093 -2.007812,0.355469 -0.375,0.1875 -0.5625,0.449218 -0.5625,0.777343 0,0.378907 0.21875,0.671875 0.652344,0.875 0.5625,0.261719 1.308594,0.464844 2.238281,0.601563 0.96875,0.148437 2.042969,0.292968 3.226563,0.441406 1.195312,0.144531 2.386718,0.347656 3.570312,0.601562 1.207031,0.261719 2.3125,0.65625 3.320312,1.179688 1.035157,0.535156 1.871094,1.273438 2.507813,2.210938 0.648437,0.953124 0.972656,2.175781 0.972656,3.671874 0,1.847657 -0.613281,3.386719 -1.839843,4.613282 -1.195313,1.195312 -2.820313,2.089844 -4.875,2.683594 -2.019532,0.582031 -4.300782,0.875 -6.84375,0.875 z m 0,-0.847657 c 2.460937,0 4.664062,-0.28125 6.609374,-0.84375 1.914063,-0.550781 3.414063,-1.375 4.507813,-2.464843 1.0625,-1.0625 1.59375,-2.402344 1.59375,-4.015626 0,-1.320312 -0.273437,-2.386718 -0.824219,-3.191406 -0.558594,-0.820312 -1.292968,-1.46875 -2.203125,-1.941406 -0.9375,-0.488281 -1.972656,-0.855469 -3.105469,-1.097656 -1.160156,-0.25 -2.324218,-0.449219 -3.496093,-0.59375 -1.1875,-0.148438 -2.269531,-0.292969 -3.246094,-0.441406 -1.011719,-0.152344 -1.835937,-0.375 -2.472656,-0.671876 -0.761719,-0.355468 -1.140625,-0.902343 -1.140625,-1.644531 0,-0.679687 0.34375,-1.191406 1.03125,-1.535156 0.59375,-0.296875 1.386718,-0.445313 2.386718,-0.445313 1.332032,0 2.46875,0.300782 3.402344,0.90625 1.003906,0.648438 1.476563,1.519532 1.414063,2.617188 l -0.425781,-0.02344 0.0039,-0.425781 8.386718,0.08203 -0.0039,0.421876 h -0.425781 v -12.816407 h 0.425781 v 0.425781 H 16.96875 v -0.425781 h 0.425781 v 8.011719 h -1.570312 v -0.425781 c 0,-2.644531 -0.683594,-4.59375 -2.058594,-5.855469 -1.382813,-1.269531 -3.203125,-1.902344 -5.460937,-1.902344 -2.15625,0 -3.894532,0.570313 -5.210938,1.710938 -1.300781,1.125 -1.949219,2.808594 -1.949219,5.050781 0,1.578125 0.273438,2.867187 0.824219,3.867187 0.550781,1 1.285156,1.785157 2.207031,2.359376 0.949219,0.589843 1.980469,1.023437 3.09375,1.304687 1.140625,0.289063 2.28125,0.5 3.417969,0.628906 1.15625,0.132813 2.222656,0.238281 3.199219,0.320313 1.023437,0.08203 1.839843,0.230468 2.460937,0.441406 0.777344,0.261719 1.164063,0.722656 1.164063,1.378906 0,0.65625 -0.433594,1.128906 -1.308594,1.417969 -0.722656,0.242187 -1.71875,0.363281 -2.988281,0.363281 -1.546875,0 -3.136719,-0.167968 -4.777344,-0.507812 C 6.800781,-10.125 5.277344,-10.589844 3.867188,-11.1875 2.441406,-11.792969 1.285156,-12.480469 0.398438,-13.253906 l 0.28125,-0.320313 h 0.421874 v 11.21875 H 0.679688 l 0.230468,-0.355469 c 0.980469,0.644532 2.171875,1.179688 3.585938,1.605469 1.425781,0.433594 2.921875,0.753907 4.484375,0.964844 1.566406,0.2109375 3.015625,0.316406 4.355469,0.316406 z m 0,0"
           id="path5" />
      </g>
    </g>
    <g
       style="fill:#000000;fill-opacity:1"
       id="g9"
       transform="translate(525.95338,9.5338982)">
      <g
         transform="translate(157.25126,202.48899)"
         id="g8">
        <path
           style="stroke:none"
           d="m 20.800781,-10.484375 h 4.578125 V 0.425781 h -20.375 v -10.910156 h 4.539063 c 0.3125,0 0.578125,-0.109375 0.804687,-0.324219 0.21875,-0.207031 0.328125,-0.464844 0.328125,-0.769531 v -7.464844 h 0.421875 v 0.421875 h -0.398437 c -0.300781,0 -0.542969,0.101563 -0.722657,0.300782 -0.191406,0.210937 -0.289062,0.609374 -0.289062,1.191406 V -12.3125 H 0.375 V -28.371094 H 29.96875 V -12.3125 h -9.3125 v -4.816406 c 0,-0.585938 -0.08984,-0.984375 -0.277344,-1.199219 -0.167968,-0.195313 -0.414062,-0.292969 -0.734375,-0.292969 h -0.398437 v -0.421875 h 0.421875 v 7.464844 c 0,0.304687 0.109375,0.5625 0.328125,0.769531 0.226562,0.214844 0.492187,0.324219 0.804687,0.324219 z m 0,0.847656 c -0.539062,0 -1.003906,-0.1875 -1.390625,-0.558593 -0.394531,-0.375 -0.589844,-0.835938 -0.589844,-1.382813 v -7.890625 h 0.824219 c 0.582031,0 1.039063,0.195312 1.378907,0.585938 0.320312,0.371093 0.480468,0.957031 0.480468,1.753906 v 4.390625 h -0.421875 v -0.421875 h 8.464844 v 0.421875 h -0.425781 v -15.210938 h 0.425781 v 0.425781 h -28.75 v -0.425781 h 0.425781 v 15.210938 H 0.796875 v -0.421875 h 8.464844 v 0.421875 H 8.839844 v -4.390625 c 0,-0.800782 0.167968,-1.386719 0.507812,-1.761719 0.351563,-0.386719 0.800782,-0.578125 1.351563,-0.578125 h 0.824219 v 7.890625 c 0,0.546875 -0.195313,1.007813 -0.589844,1.382813 -0.386719,0.371093 -0.851563,0.558593 -1.390625,0.558593 H 5.429688 V -10.0625 H 5.855469 V 0 H 5.429688 V -0.425781 H 24.953125 V 0 H 24.53125 v -10.0625 h 0.421875 v 0.425781 z m 0,0"
           id="path7" />
      </g>
    </g>
    <g
       style="fill:#000000;fill-opacity:1"
       id="g11"
       transform="translate(525.95338,9.5338982)">
      <g
         transform="translate(192.30615,202.48899)"
         id="g10">
        <path
           style="stroke:none"
           d="m 13.335938,1.023438 c -1.378907,0 -2.867188,-0.109376 -4.46875,-0.324219 C 7.261719,0.484375 5.722656,0.152344 4.25,-0.292969 2.757812,-0.742188 1.492188,-1.3125 0.445312,-2 L 0.253906,-2.125 v -12.382812 l 0.703125,0.613281 c 0.820313,0.714843 1.898438,1.355469 3.242188,1.925781 1.355469,0.574219 2.828125,1.023438 4.410156,1.351562 1.582031,0.328126 3.117187,0.492188 4.605469,0.492188 1.179687,0 2.085937,-0.105469 2.722656,-0.320312 0.484375,-0.160157 0.726562,-0.367188 0.726562,-0.613282 0,-0.25 -0.195312,-0.441406 -0.589843,-0.578125 -0.554688,-0.1875 -1.304688,-0.320312 -2.253907,-0.398437 -0.988281,-0.07813 -2.066406,-0.1875 -3.226562,-0.320313 C 9.414062,-12.488281 8.238281,-12.707031 7.0625,-13.003906 5.863281,-13.308594 4.75,-13.777344 3.730469,-14.414062 2.679688,-15.0625 1.847656,-15.953125 1.226562,-17.082031 c -0.621093,-1.128907 -0.933593,-2.554688 -0.933593,-4.277344 0,-2.5 0.75,-4.394531 2.242187,-5.691406 1.480469,-1.28125 3.402344,-1.921875 5.769532,-1.921875 2.480468,0 4.492187,0.710937 6.035156,2.128906 1.554687,1.429688 2.335937,3.589844 2.335937,6.480469 H 16.25 v -0.421875 h 0.71875 v 0.421875 h -0.425781 v -8.007813 h 9.632812 v 13.667969 l -9.257812,-0.08984 0.02734,-0.441406 c 0.04297,-0.769531 -0.296874,-1.386719 -1.027343,-1.855469 -0.792969,-0.515625 -1.773438,-0.773437 -2.941407,-0.773437 -0.867187,0 -1.535156,0.121093 -2.007812,0.355469 -0.375,0.1875 -0.5625,0.449218 -0.5625,0.777343 0,0.378907 0.21875,0.671875 0.652344,0.875 0.5625,0.261719 1.308594,0.464844 2.238281,0.601563 0.96875,0.148437 2.042969,0.292968 3.226563,0.441406 1.195312,0.144531 2.386718,0.347656 3.570312,0.601562 1.207031,0.261719 2.3125,0.65625 3.320312,1.179688 1.035157,0.535156 1.871094,1.273438 2.507813,2.210938 0.648437,0.953124 0.972656,2.175781 0.972656,3.671874 0,1.847657 -0.613281,3.386719 -1.839843,4.613282 -1.195313,1.195312 -2.820313,2.089844 -4.875,2.683594 -2.019532,0.582031 -4.300782,0.875 -6.84375,0.875 z m 0,-0.847657 c 2.460937,0 4.664062,-0.28125 6.609374,-0.84375 1.914063,-0.550781 3.414063,-1.375 4.507813,-2.464843 1.0625,-1.0625 1.59375,-2.402344 1.59375,-4.015626 0,-1.320312 -0.273437,-2.386718 -0.824219,-3.191406 -0.558594,-0.820312 -1.292968,-1.46875 -2.203125,-1.941406 -0.9375,-0.488281 -1.972656,-0.855469 -3.105469,-1.097656 -1.160156,-0.25 -2.324218,-0.449219 -3.496093,-0.59375 -1.1875,-0.148438 -2.269531,-0.292969 -3.246094,-0.441406 -1.011719,-0.152344 -1.835937,-0.375 -2.472656,-0.671876 -0.761719,-0.355468 -1.140625,-0.902343 -1.140625,-1.644531 0,-0.679687 0.34375,-1.191406 1.03125,-1.535156 0.59375,-0.296875 1.386718,-0.445313 2.386718,-0.445313 1.332032,0 2.46875,0.300782 3.402344,0.90625 1.003906,0.648438 1.476563,1.519532 1.414063,2.617188 l -0.425781,-0.02344 0.0039,-0.425781 8.386718,0.08203 -0.0039,0.421876 h -0.425781 v -12.816407 h 0.425781 v 0.425781 H 16.96875 v -0.425781 h 0.425781 v 8.011719 h -1.570312 v -0.425781 c 0,-2.644531 -0.683594,-4.59375 -2.058594,-5.855469 -1.382813,-1.269531 -3.203125,-1.902344 -5.460937,-1.902344 -2.15625,0 -3.894532,0.570313 -5.210938,1.710938 -1.300781,1.125 -1.949219,2.808594 -1.949219,5.050781 0,1.578125 0.273438,2.867187 0.824219,3.867187 0.550781,1 1.285156,1.785157 2.207031,2.359376 0.949219,0.589843 1.980469,1.023437 3.09375,1.304687 1.140625,0.289063 2.28125,0.5 3.417969,0.628906 1.15625,0.132813 2.222656,0.238281 3.199219,0.320313 1.023437,0.08203 1.839843,0.230468 2.460937,0.441406 0.777344,0.261719 1.164063,0.722656 1.164063,1.378906 0,0.65625 -0.433594,1.128906 -1.308594,1.417969 -0.722656,0.242187 -1.71875,0.363281 -2.988281,0.363281 -1.546875,0 -3.136719,-0.167968 -4.777344,-0.507812 C 6.800781,-10.125 5.277344,-10.589844 3.867188,-11.1875 2.441406,-11.792969 1.285156,-12.480469 0.398438,-13.253906 l 0.28125,-0.320313 h 0.421874 v 11.21875 H 0.679688 l 0.230468,-0.355469 c 0.980469,0.644532 2.171875,1.179688 3.585938,1.605469 1.425781,0.433594 2.921875,0.753907 4.484375,0.964844 1.566406,0.2109375 3.015625,0.316406 4.355469,0.316406 z m 0,0"
           id="path9" />
      </g>
    </g>
    <g
       style="fill:#000000;fill-opacity:1"
       id="g13"
       transform="translate(525.95338,9.5338982)">
      <g
         transform="translate(223.88753,202.48899)"
         id="g12">
        <path
           style="stroke:none"
           d="m 13.972656,-10.566406 h 1.863282 V 0.425781 H 0.453125 v -10.992187 h 1.863281 c 0.339844,0 0.621094,-0.105469 0.84375,-0.320313 0.21875,-0.210937 0.328125,-0.464843 0.328125,-0.773437 v -4.628906 c 0,-0.304688 -0.109375,-0.5625 -0.328125,-0.773438 C 2.9375,-17.277344 2.65625,-17.382812 2.316406,-17.382812 H 0.453125 v -10.988282 h 15.382813 v 10.988282 h -1.863282 c -0.3125,0 -0.578125,0.105468 -0.804687,0.320312 -0.21875,0.210938 -0.328125,0.46875 -0.328125,0.773438 v 4.628906 c 0,0.308594 0.109375,0.5625 0.328125,0.773437 0.226562,0.214844 0.492187,0.320313 0.804687,0.320313 z m 0,0.847656 c -0.539062,0 -1,-0.183594 -1.390625,-0.554688 -0.390625,-0.375 -0.589843,-0.839843 -0.589843,-1.386718 v -4.628906 c 0,-0.546876 0.199218,-1.007813 0.589843,-1.386719 0.390625,-0.371094 0.851563,-0.554688 1.390625,-0.554688 h 1.4375 v 0.421875 h -0.421875 v -10.140625 h 0.421875 v 0.425781 H 0.878906 v -0.425781 h 0.421875 v 10.140625 H 0.878906 v -0.421875 h 1.4375 c 0.566406,0 1.042969,0.183594 1.429688,0.554688 0.394531,0.378906 0.589844,0.839843 0.589844,1.386719 v 4.628906 c 0,0.546875 -0.195313,1.011718 -0.589844,1.386718 -0.386719,0.371094 -0.863282,0.554688 -1.429688,0.554688 h -1.4375 v -0.421875 H 1.300781 V 0 H 0.878906 v -0.425781 h 14.53125 V 0 h -0.421875 v -10.140625 h 0.421875 v 0.421875 z m 0,0"
           id="path11" />
      </g>
    </g>
    <g
       style="fill:#000000;fill-opacity:1"
       id="g15"
       transform="translate(525.95338,9.5338982)">
      <g
         transform="translate(244.84874,202.48899)"
         id="g14">
        <path
           style="stroke:none"
           d="M 14.09375,0.425781 H 0.453125 v -10.910156 h 1.863281 c 0.339844,0 0.621094,-0.109375 0.84375,-0.324219 0.21875,-0.207031 0.328125,-0.464844 0.328125,-0.769531 v -4.792969 c 0,-0.304687 -0.109375,-0.5625 -0.328125,-0.769531 C 2.9375,-17.355469 2.65625,-17.460938 2.316406,-17.460938 H 0.453125 V -28.371094 H 14.09375 c 2.453125,0 4.5625,0.367188 6.332031,1.109375 1.78125,0.746094 3.238281,1.789063 4.371094,3.132813 1.132813,1.335937 1.957031,2.875 2.480469,4.625 0.515625,1.726562 0.777344,3.570312 0.777344,5.53125 0,1.957031 -0.261719,3.800781 -0.777344,5.53125 -0.523438,1.746094 -1.347656,3.285156 -2.480469,4.621094 -1.132813,1.34375 -2.589844,2.390624 -4.371094,3.132812 -1.769531,0.7421875 -3.878906,1.113281 -6.332031,1.113281 z m 0,-0.851562 c 2.339844,0 4.339844,-0.347657 6.003906,-1.042969 1.65625,-0.691406 3.003906,-1.660156 4.054688,-2.898438 1.050781,-1.246093 1.824218,-2.683593 2.3125,-4.320312 0.492187,-1.648438 0.738281,-3.410156 0.738281,-5.285156 0,-1.875 -0.246094,-3.640625 -0.738281,-5.289063 -0.488282,-1.632812 -1.261719,-3.074219 -2.3125,-4.320312 -1.050782,-1.238281 -2.398438,-2.203125 -4.054688,-2.898438 -1.664062,-0.695312 -3.664062,-1.042969 -6.003906,-1.042969 H 0.878906 v -0.425781 h 0.421875 v 10.0625 H 0.878906 V -18.3125 h 1.4375 c 0.566406,0 1.042969,0.1875 1.429688,0.558594 0.394531,0.375 0.589844,0.835937 0.589844,1.382812 v 4.792969 c 0,0.546875 -0.195313,1.007813 -0.589844,1.382813 -0.386719,0.371093 -0.863282,0.558593 -1.429688,0.558593 h -1.4375 V -10.0625 H 1.300781 V 0 H 0.878906 v -0.425781 z m 0.4375,-17.035157 h -2.113281 v -0.425781 h 0.421875 v 7.824219 h -0.421875 v -0.421875 h 2.113281 c 1.4375,0 2.433594,-0.335937 2.988281,-1.003906 0.574219,-0.695313 0.863281,-1.523438 0.863281,-2.484375 0,-0.988282 -0.289062,-1.824219 -0.859374,-2.503906 -0.554688,-0.65625 -1.550782,-0.984376 -2.992188,-0.984376 z m 0,-0.851562 c 1.703125,0 2.917969,0.429688 3.640625,1.289062 0.703125,0.839844 1.058594,1.855469 1.058594,3.050782 0,1.164062 -0.351563,2.171875 -1.058594,3.023437 -0.722656,0.875 -1.933594,1.3125 -3.640625,1.3125 H 11.992188 V -18.3125 Z m 0,0"
           id="path13" />
      </g>
    </g>
    <g
       style="fill:#000000;fill-opacity:1"
       id="g17"
       transform="translate(525.95338,9.5338982)">
      <g
         transform="translate(277.62786,202.48899)"
         id="g16">
        <path
           style="stroke:none"
           d="m 17.542969,-11.976562 v -1.421876 h 9.511719 V 0.425781 H 0.453125 v -10.910156 h 1.941406 c 0.335938,0 0.609375,-0.105469 0.820313,-0.316406 0.207031,-0.210938 0.3125,-0.46875 0.3125,-0.777344 v -4.792969 c 0,-0.308594 -0.105469,-0.566406 -0.3125,-0.777344 -0.210938,-0.210937 -0.484375,-0.3125 -0.820313,-0.3125 H 0.492188 V -28.371094 H 10.78125 c 2.414062,0 4.113281,0.742188 5.101562,2.222656 0.953126,1.429688 1.429688,3.386719 1.429688,5.867188 h -0.421875 v -0.425781 h 0.714844 v 0.425781 h -0.421875 v -8.089844 h 9.59375 v 14.0625 h -9.515625 v -1.660156 c 0,-0.5625 -0.121094,-0.945312 -0.367188,-1.15625 -0.265625,-0.226562 -0.574219,-0.335938 -0.925781,-0.335938 h -3.511719 v -0.425781 h 0.425781 v 2.59375 h -0.425781 v -0.421875 h 1.078125 c 0.28125,0 0.46875,-0.04687 0.558594,-0.136718 0.08984,-0.08984 0.136719,-0.289063 0.136719,-0.597657 v -0.585937 h 2.5625 v 6.121094 h -2.5625 V -11.5 c 0,-0.328125 -0.04297,-0.53125 -0.125,-0.605469 -0.08984,-0.08594 -0.28125,-0.125 -0.570313,-0.125 h -1.078125 v -0.425781 h 0.425781 v 2.59375 h -0.425781 v -0.421875 H 16.25 c 0.34375,0 0.652344,-0.117187 0.917969,-0.355469 0.25,-0.21875 0.375,-0.601562 0.375,-1.136718 z m 0.847656,0 c 0,0.792968 -0.21875,1.382812 -0.660156,1.773437 -0.429688,0.378906 -0.921875,0.566406 -1.480469,0.566406 h -4.21875 v -3.445312 h 1.503906 c 0.507813,0 0.890625,0.117187 1.144532,0.351562 0.265624,0.246094 0.398437,0.65625 0.398437,1.230469 v 0.160156 h -0.425781 v -0.421875 h 1.71875 v 0.421875 h -0.425782 v -5.269531 h 0.425782 v 0.425781 h -1.71875 v -0.425781 h 0.425781 v 0.160156 c 0,0.542969 -0.128906,0.941407 -0.386719,1.199219 -0.253906,0.253906 -0.640625,0.382812 -1.15625,0.382812 H 12.03125 V -18.3125 h 3.9375 c 0.558594,0 1.046875,0.179688 1.472656,0.539062 0.445313,0.378907 0.671875,0.980469 0.671875,1.804688 v 1.234375 H 17.6875 v -0.421875 h 8.664062 v 0.421875 h -0.425781 v -13.214844 h 0.425781 v 0.425781 h -8.746093 v -0.425781 h 0.425781 v 8.089844 h -1.566406 v -0.421875 c 0,-2.3125 -0.429688,-4.109375 -1.285156,-5.394531 -0.824219,-1.230469 -2.289063,-1.847657 -4.398438,-1.847657 H 0.917969 v -0.425781 H 1.34375 v 10.0625 H 0.917969 V -18.3125 h 1.476562 c 0.570313,0 1.042969,0.1875 1.417969,0.566406 0.375,0.375 0.5625,0.832032 0.5625,1.375 v 4.792969 c 0,0.542969 -0.1875,1 -0.5625,1.378906 -0.375,0.375 -0.847656,0.5625 -1.417969,0.5625 H 0.878906 V -10.0625 H 1.300781 V 0 H 0.878906 v -0.425781 h 25.75 V 0 h -0.421875 v -12.976562 h 0.421875 v 0.425781 h -8.664062 v -0.425781 h 0.425781 z m 0,0"
           id="path15" />
      </g>
    </g>
    <g
       style="fill:#000000;fill-opacity:1"
       id="g21"
       transform="translate(525.95338,9.5338982)">
      <g
         transform="translate(57.436587,202.48899)"
         id="g20">
        <path
           style="stroke:none"
           d="m 17.96875,-11.96875 v -1 H 26.625 V 0 H 0.875 v -10.0625 h 1.515625 c 0.457031,0 0.832031,-0.144531 1.125,-0.4375 0.289063,-0.289062 0.4375,-0.648438 0.4375,-1.078125 V -16.375 c 0,-0.414062 -0.148437,-0.769531 -0.4375,-1.0625 -0.292969,-0.300781 -0.667969,-0.453125 -1.125,-0.453125 H 0.921875 V -27.9375 h 9.859375 c 2.257812,0 3.84375,0.679688 4.75,2.03125 0.90625,1.355469 1.359375,3.230469 1.359375,5.625 h 0.71875 v -7.65625 h 8.734375 v 13.203125 H 17.6875 v -1.234375 c 0,-0.6875 -0.179688,-1.175781 -0.53125,-1.46875 -0.34375,-0.300781 -0.742188,-0.453125 -1.1875,-0.453125 h -3.515625 v 2.59375 h 1.078125 c 0.394531,0 0.679688,-0.08203 0.859375,-0.25 0.175781,-0.175781 0.265625,-0.476563 0.265625,-0.90625 v -0.15625 H 16.375 v 5.265625 H 14.65625 V -11.5 c 0,-0.445312 -0.08984,-0.75 -0.265625,-0.90625 -0.179687,-0.164062 -0.464844,-0.25 -0.859375,-0.25 h -1.078125 v 2.59375 H 16.25 c 0.445312,0 0.84375,-0.148438 1.1875,-0.453125 0.351562,-0.3125 0.53125,-0.796875 0.53125,-1.453125 z m 0,0"
           id="path19" />
      </g>
    </g>
    <g
       style="fill:#000000;fill-opacity:1"
       id="g23"
       transform="translate(525.95338,9.5338982)">
      <g
         transform="translate(89.576929,202.48899)"
         id="g22">
        <path
           style="stroke:none"
           d="M 13.859375,-10.0625 H 14.65625 V 0 H 0.875 v -10.0625 h 2.203125 c 0.375,0 0.695313,-0.117188 0.96875,-0.359375 0.28125,-0.238281 0.488281,-0.53125 0.625,-0.875 L 6.59375,-16.125 c 0.238281,-0.5625 0.207031,-0.992188 -0.09375,-1.296875 -0.292969,-0.3125 -0.703125,-0.46875 -1.234375,-0.46875 H 3.59375 V -27.9375 h 17.640625 c 0.769531,0 1.265625,0.386719 1.484375,1.15625 l 4.59375,15.484375 c 0.101562,0.34375 0.304688,0.636719 0.609375,0.875 0.3125,0.242187 0.640625,0.359375 0.984375,0.359375 H 30.5 V 0 H 16.40625 v -10.0625 h 0.796875 c 0.476563,0 0.820313,-0.128906 1.03125,-0.390625 0.21875,-0.269531 0.257813,-0.59375 0.125,-0.96875 l -0.3125,-0.875 h -5.03125 l -0.328125,0.875 c -0.125,0.375 -0.08594,0.699219 0.125,0.96875 0.21875,0.261719 0.566406,0.390625 1.046875,0.390625 z m 0.4375,-6.03125 -0.71875,1.84375 h 3.46875 l -0.71875,-1.84375 c -0.136719,-0.34375 -0.273437,-0.707031 -0.40625,-1.09375 -0.125,-0.382812 -0.214844,-0.765625 -0.265625,-1.140625 h -0.6875 c -0.15625,0.804687 -0.382812,1.546875 -0.671875,2.234375 z m 0,0"
           id="path21" />
      </g>
    </g>
    <g
       style="fill:#000000;fill-opacity:1"
       id="g25"
       transform="translate(525.95338,9.5338982)">
      <g
         transform="translate(125.66988,202.48899)"
         id="g24">
        <path
           style="stroke:none"
           d="m 13.328125,0.59375 c -1.355469,0 -2.824219,-0.109375 -4.40625,-0.328125 C 7.335938,0.0546875 5.820312,-0.265625 4.375,-0.703125 2.925781,-1.140625 1.691406,-1.691406 0.671875,-2.359375 v -11.21875 c 0.851563,0.75 1.972656,1.417969 3.359375,2 1.382812,0.585937 2.878906,1.042969 4.484375,1.375 1.613281,0.335937 3.179687,0.5 4.703125,0.5 1.21875,0 2.164062,-0.109375 2.84375,-0.328125 0.6875,-0.226562 1.03125,-0.570312 1.03125,-1.03125 0,-0.445312 -0.296875,-0.769531 -0.890625,-0.96875 -0.585937,-0.195312 -1.371094,-0.335938 -2.359375,-0.421875 -0.980469,-0.08203 -2.046875,-0.1875 -3.203125,-0.3125 C 9.484375,-12.898438 8.320312,-13.113281 7.15625,-13.40625 6,-13.707031 4.925781,-14.160156 3.9375,-14.765625 2.957031,-15.378906 2.175781,-16.21875 1.59375,-17.28125 c -0.585938,-1.070312 -0.875,-2.429688 -0.875,-4.078125 0,-2.363281 0.695312,-4.148437 2.09375,-5.359375 1.394531,-1.21875 3.222656,-1.828125 5.484375,-1.828125 2.375,0 4.289063,0.671875 5.75,2.015625 1.46875,1.34375 2.203125,3.402344 2.203125,6.171875 h 0.71875 V -27.9375 H 25.75 v 12.8125 l -8.390625,-0.07813 c 0.0625,-0.9375 -0.34375,-1.679687 -1.21875,-2.234375 -0.867187,-0.5625 -1.921875,-0.84375 -3.171875,-0.84375 -0.929688,0 -1.65625,0.136719 -2.1875,0.40625 -0.53125,0.261719 -0.796875,0.640625 -0.796875,1.140625 0,0.5625 0.296875,0.984375 0.890625,1.265625 0.601562,0.28125 1.390625,0.496094 2.359375,0.640625 0.96875,0.148437 2.046875,0.292969 3.234375,0.4375 1.1875,0.148437 2.363281,0.351563 3.53125,0.609375 1.164062,0.25 2.234375,0.632812 3.203125,1.140625 0.976563,0.5 1.765625,1.1875 2.359375,2.0625 0.601562,0.875 0.90625,2.023437 0.90625,3.4375 0,1.730469 -0.574219,3.167969 -1.71875,4.3125 -1.148438,1.136719 -2.710938,1.992187 -4.6875,2.5625 -1.980469,0.570313 -4.226562,0.859375 -6.734375,0.859375 z m 0,0"
           id="path23" />
      </g>
    </g>
    <g
       style="fill:#000000;fill-opacity:1"
       id="g27"
       transform="translate(525.95338,9.5338982)">
      <g
         transform="translate(157.25126,202.48899)"
         id="g26">
        <path
           style="stroke:none"
           d="m 20.796875,-10.0625 h 4.15625 V 0 H 5.421875 v -10.0625 h 4.125 c 0.425781,0 0.789063,-0.144531 1.09375,-0.4375 0.300781,-0.289062 0.453125,-0.648438 0.453125,-1.078125 v -7.46875 h -0.390625 c -0.429687,0 -0.777344,0.148437 -1.046875,0.4375 -0.261719,0.292969 -0.390625,0.789063 -0.390625,1.484375 v 4.390625 H 0.796875 V -27.9375 h 28.75 v 15.203125 h -8.46875 V -17.125 c 0,-0.695312 -0.132813,-1.191406 -0.390625,-1.484375 -0.25,-0.289063 -0.601562,-0.4375 -1.046875,-0.4375 H 19.25 v 7.46875 c 0,0.429687 0.148438,0.789063 0.453125,1.078125 0.300781,0.292969 0.664063,0.4375 1.09375,0.4375 z m 0,0"
           id="path25" />
      </g>
    </g>
    <g
       style="fill:#000000;fill-opacity:1"
       id="g29"
       transform="translate(525.95338,9.5338982)">
      <g
         transform="translate(192.30615,202.48899)"
         id="g28">
        <path
           style="stroke:none"
           d="m 13.328125,0.59375 c -1.355469,0 -2.824219,-0.109375 -4.40625,-0.328125 C 7.335938,0.0546875 5.820312,-0.265625 4.375,-0.703125 2.925781,-1.140625 1.691406,-1.691406 0.671875,-2.359375 v -11.21875 c 0.851563,0.75 1.972656,1.417969 3.359375,2 1.382812,0.585937 2.878906,1.042969 4.484375,1.375 1.613281,0.335937 3.179687,0.5 4.703125,0.5 1.21875,0 2.164062,-0.109375 2.84375,-0.328125 0.6875,-0.226562 1.03125,-0.570312 1.03125,-1.03125 0,-0.445312 -0.296875,-0.769531 -0.890625,-0.96875 -0.585937,-0.195312 -1.371094,-0.335938 -2.359375,-0.421875 -0.980469,-0.08203 -2.046875,-0.1875 -3.203125,-0.3125 C 9.484375,-12.898438 8.320312,-13.113281 7.15625,-13.40625 6,-13.707031 4.925781,-14.160156 3.9375,-14.765625 2.957031,-15.378906 2.175781,-16.21875 1.59375,-17.28125 c -0.585938,-1.070312 -0.875,-2.429688 -0.875,-4.078125 0,-2.363281 0.695312,-4.148437 2.09375,-5.359375 1.394531,-1.21875 3.222656,-1.828125 5.484375,-1.828125 2.375,0 4.289063,0.671875 5.75,2.015625 1.46875,1.34375 2.203125,3.402344 2.203125,6.171875 h 0.71875 V -27.9375 H 25.75 v 12.8125 l -8.390625,-0.07813 c 0.0625,-0.9375 -0.34375,-1.679687 -1.21875,-2.234375 -0.867187,-0.5625 -1.921875,-0.84375 -3.171875,-0.84375 -0.929688,0 -1.65625,0.136719 -2.1875,0.40625 -0.53125,0.261719 -0.796875,0.640625 -0.796875,1.140625 0,0.5625 0.296875,0.984375 0.890625,1.265625 0.601562,0.28125 1.390625,0.496094 2.359375,0.640625 0.96875,0.148437 2.046875,0.292969 3.234375,0.4375 1.1875,0.148437 2.363281,0.351563 3.53125,0.609375 1.164062,0.25 2.234375,0.632812 3.203125,1.140625 0.976563,0.5 1.765625,1.1875 2.359375,2.0625 0.601562,0.875 0.90625,2.023437 0.90625,3.4375 0,1.730469 -0.574219,3.167969 -1.71875,4.3125 -1.148438,1.136719 -2.710938,1.992187 -4.6875,2.5625 -1.980469,0.570313 -4.226562,0.859375 -6.734375,0.859375 z m 0,0"
           id="path27" />
      </g>
    </g>
    <g
       style="fill:#000000;fill-opacity:1"
       id="g31"
       transform="translate(525.95338,9.5338982)">
      <g
         transform="translate(223.88753,202.48899)"
         id="g30">
        <path
           style="stroke:none"
           d="m 13.96875,-10.140625 h 1.4375 V 0 H 0.875 v -10.140625 h 1.4375 c 0.457031,0 0.835938,-0.144531 1.140625,-0.4375 0.300781,-0.289063 0.453125,-0.648437 0.453125,-1.078125 v -4.625 c 0,-0.425781 -0.152344,-0.785156 -0.453125,-1.078125 C 3.148438,-17.660156 2.769531,-17.8125 2.3125,-17.8125 H 0.875 v -10.125 h 14.53125 v 10.125 h -1.4375 c -0.429688,0 -0.792969,0.152344 -1.09375,0.453125 -0.304688,0.292969 -0.453125,0.652344 -0.453125,1.078125 v 4.625 c 0,0.429688 0.148437,0.789062 0.453125,1.078125 0.300781,0.292969 0.664062,0.4375 1.09375,0.4375 z m 0,0"
           id="path29" />
      </g>
    </g>
    <g
       style="fill:#000000;fill-opacity:1"
       id="g33"
       transform="translate(525.95338,9.5338982)">
      <g
         transform="translate(244.84874,202.48899)"
         id="g32">
        <path
           style="stroke:none"
           d="M 14.09375,0 H 0.875 v -10.0625 h 1.4375 c 0.457031,0 0.835938,-0.144531 1.140625,-0.4375 0.300781,-0.289062 0.453125,-0.648438 0.453125,-1.078125 V -16.375 c 0,-0.414062 -0.152344,-0.769531 -0.453125,-1.0625 C 3.148438,-17.738281 2.769531,-17.890625 2.3125,-17.890625 H 0.875 V -27.9375 h 13.21875 c 2.394531,0 4.445312,0.359375 6.15625,1.078125 1.71875,0.710937 3.125,1.710937 4.21875,3 1.09375,1.292969 1.890625,2.789063 2.390625,4.484375 0.507813,1.6875 0.765625,3.492188 0.765625,5.40625 0,1.917969 -0.257812,3.71875 -0.765625,5.40625 -0.5,1.6875 -1.296875,3.179688 -2.390625,4.46875 -1.09375,1.292969 -2.5,2.296875 -4.21875,3.015625 C 18.539062,-0.359375 16.488281,0 14.09375,0 Z m 0.4375,-17.890625 h -2.109375 v 7.828125 h 2.109375 c 1.570312,0 2.675781,-0.382812 3.3125,-1.15625 0.632812,-0.769531 0.953125,-1.6875 0.953125,-2.75 0,-1.09375 -0.320313,-2.019531 -0.953125,-2.78125 -0.636719,-0.757812 -1.742188,-1.140625 -3.3125,-1.140625 z m 0,0"
           id="path31" />
      </g>
    </g>
    <g
       style="fill:#000000;fill-opacity:1"
       id="g35"
       transform="translate(525.95338,9.5338982)">
      <g
         transform="translate(277.62786,202.48899)"
         id="g34">
        <path
           style="stroke:none"
           d="m 17.96875,-11.96875 v -1 H 26.625 V 0 H 0.875 v -10.0625 h 1.515625 c 0.457031,0 0.832031,-0.144531 1.125,-0.4375 0.289063,-0.289062 0.4375,-0.648438 0.4375,-1.078125 V -16.375 c 0,-0.414062 -0.148437,-0.769531 -0.4375,-1.0625 -0.292969,-0.300781 -0.667969,-0.453125 -1.125,-0.453125 H 0.921875 V -27.9375 h 9.859375 c 2.257812,0 3.84375,0.679688 4.75,2.03125 0.90625,1.355469 1.359375,3.230469 1.359375,5.625 h 0.71875 v -7.65625 h 8.734375 v 13.203125 H 17.6875 v -1.234375 c 0,-0.6875 -0.179688,-1.175781 -0.53125,-1.46875 -0.34375,-0.300781 -0.742188,-0.453125 -1.1875,-0.453125 h -3.515625 v 2.59375 h 1.078125 c 0.394531,0 0.679688,-0.08203 0.859375,-0.25 0.175781,-0.175781 0.265625,-0.476563 0.265625,-0.90625 v -0.15625 H 16.375 v 5.265625 H 14.65625 V -11.5 c 0,-0.445312 -0.08984,-0.75 -0.265625,-0.90625 -0.179687,-0.164062 -0.464844,-0.25 -0.859375,-0.25 h -1.078125 v 2.59375 H 16.25 c 0.445312,0 0.84375,-0.148438 1.1875,-0.453125 0.351562,-0.3125 0.53125,-0.796875 0.53125,-1.453125 z m 0,0"
           id="path33" />
      </g>
    </g>
  </g>
</svg>
